<svg width="461" height="130" viewBox="0 0 461 130" fill="none" xmlns="http://www.w3.org/2000/svg">
<path d="M195.3 129.836C194.193 129.836 193.193 129.696 192.3 129.416C191.407 129.123 190.633 128.703 189.98 128.156L190.56 126.836C191.24 127.356 191.953 127.743 192.7 127.996C193.447 128.249 194.313 128.376 195.3 128.376C196.5 128.376 197.387 128.156 197.96 127.716C198.547 127.263 198.84 126.669 198.84 125.936C198.84 125.349 198.627 124.883 198.2 124.536C197.787 124.189 197.087 123.916 196.1 123.716L194.02 123.296C192.767 123.029 191.827 122.596 191.2 121.996C190.587 121.383 190.28 120.569 190.28 119.556C190.28 118.716 190.493 117.983 190.92 117.356C191.36 116.729 191.967 116.243 192.74 115.896C193.513 115.549 194.407 115.376 195.42 115.376C196.367 115.376 197.247 115.529 198.06 115.836C198.873 116.129 199.56 116.556 200.12 117.116L199.54 118.396C198.94 117.849 198.307 117.456 197.64 117.216C196.973 116.963 196.227 116.836 195.4 116.836C194.347 116.836 193.507 117.083 192.88 117.576C192.253 118.056 191.94 118.696 191.94 119.496C191.94 120.136 192.133 120.643 192.52 121.016C192.92 121.389 193.567 121.663 194.46 121.836L196.54 122.276C197.887 122.556 198.88 122.983 199.52 123.556C200.173 124.116 200.5 124.883 200.5 125.856C200.5 126.643 200.287 127.336 199.86 127.936C199.447 128.536 198.847 129.003 198.06 129.336C197.287 129.669 196.367 129.836 195.3 129.836ZM203.045 129.656V115.556H211.945V116.936H204.645V121.816H211.525V123.196H204.645V128.276H211.945V129.656H203.045ZM207.165 114.356L209.525 110.916H211.345L208.405 114.356H207.165ZM214.705 129.656V115.556H215.985L224.485 126.896V115.556H226.005V129.656H224.765L216.245 118.276V129.656H214.705ZM229.51 129.656V115.556H238.41V116.936H231.11V121.816H237.99V123.196H231.11V128.276H238.41V129.656H229.51ZM233.63 114.356L235.99 110.916H237.81L234.87 114.356H233.63ZM247.551 129.836C245.284 129.836 243.558 129.196 242.371 127.916C241.184 126.636 240.591 124.869 240.591 122.616C240.591 121.123 240.858 119.836 241.391 118.756C241.924 117.676 242.691 116.843 243.691 116.256C244.691 115.669 245.898 115.376 247.311 115.376C248.311 115.376 249.231 115.529 250.071 115.836C250.911 116.129 251.624 116.563 252.211 117.136L251.571 118.456C250.931 117.896 250.271 117.489 249.591 117.236C248.911 116.983 248.144 116.856 247.291 116.856C245.691 116.856 244.464 117.363 243.611 118.376C242.758 119.376 242.331 120.789 242.331 122.616C242.331 124.483 242.771 125.909 243.651 126.896C244.531 127.883 245.844 128.376 247.591 128.376C248.724 128.376 249.811 128.183 250.851 127.796V123.616H247.271V122.316H252.271V128.836C251.898 129.036 251.444 129.209 250.911 129.356C250.391 129.503 249.838 129.616 249.251 129.696C248.664 129.789 248.098 129.836 247.551 129.836ZM254.263 129.656L260.483 115.556H261.883L268.103 129.656H266.403L264.843 126.056H257.503L255.963 129.656H254.263ZM261.163 117.476L258.103 124.676H264.263L261.203 117.476H261.163ZM270.193 129.656V115.556H271.833V128.216H279.013V129.656H270.193Z" fill="white"/>
<path d="M27.71 42.67C22.043 40.96 16.86 37.939 12.58 33.85C8.854 30.239 6.788 25.248 6.87 20.06C6.858 14.815 8.998 9.79401 12.79 6.17001C16.656 2.20901 21.996 0.0350057 27.53 0.170006C33.127 0.0900057 38.51 2.31401 42.42 6.32001C44.779 8.83001 46.495 11.873 47.42 15.19L37.62 19C36.41 15.72 35.31 13.59 34.34 12.62C32.622 10.702 30.175 9.59901 27.6 9.58201C25.025 9.56401 22.563 10.635 20.82 12.53C18.843 14.52 17.776 17.237 17.87 20.04C17.8 22.89 18.882 25.647 20.87 27.69C23.423 30.014 26.338 31.905 29.5 33.29C36.085 35.333 42.086 38.923 47 43.76C52.153 48.71 55.073 55.541 55.09 62.686C55.107 69.831 52.22 76.676 47.09 81.65C41.943 86.91 34.848 89.806 27.49 89.65C20.063 89.777 12.92 86.802 7.78 81.44C3.456 77.044 0.719 71.334 0 65.21L10.57 61.39C11.237 67.75 13.043 72.387 15.99 75.3C18.997 78.45 23.175 80.214 27.53 80.17C31.972 80.196 36.227 78.387 39.29 75.17C42.604 71.897 44.414 67.397 44.29 62.74C44.42 58.122 42.636 53.656 39.36 50.4C36.007 47.098 32.043 44.48 27.69 42.69L27.71 42.67ZM65.35 1.21001H76.35V88.67H65.35V1.21001ZM169.34 1.22001V88.67H158.34V17.57L129.59 55.31L100.78 17.57V88.67H89.78V1.22001H101.51L129.59 37.99L157.61 1.22001H169.34ZM246.6 88.67V1.21001H257.6V79.13H289.03V88.67H246.6ZM365.64 13.25C374.209 21.49 378.993 32.903 378.86 44.79C379.014 56.71 374.23 68.163 365.64 76.43C347.736 94.054 319.004 94.054 301.1 76.43C292.51 68.163 287.726 56.71 287.88 44.79C287.747 32.903 292.531 21.49 301.1 13.25C318.986 -4.41699 347.754 -4.41699 365.64 13.25ZM333.34 9.60001C324.207 9.51901 315.449 13.226 309.15 19.84C302.441 26.406 298.746 35.455 298.94 44.84C298.746 54.225 302.441 63.274 309.15 69.84C315.517 76.369 324.25 80.05 333.37 80.05C342.49 80.05 351.223 76.369 357.59 69.84C364.299 63.274 367.994 54.225 367.8 44.84C367.98 35.472 364.286 26.444 357.59 19.89C351.278 13.254 342.499 9.52801 333.34 9.60001ZM400.07 1.22001L449.91 71.11V1.22001H460.91V88.67H448.76L400.19 20.54V88.67H389.19V1.22001H400.07Z" fill="white"/>
<path d="M339.41 27.41H326.06V40.76H339.41V27.41ZM339.41 51.23H326.06V64.58H339.41V51.23V51.23ZM228 10.72C222.721 5.405 215.792 2.044 208.35 1.19H182.31V88.65H193.31V64.38H204.93C213.568 64.57 221.898 61.166 227.93 54.98C233.964 49.155 237.337 41.106 237.26 32.72C237.359 24.432 234.03 16.47 228.06 10.72H228ZM219.8 48C215.95 51.938 210.667 54.143 205.16 54.11H193.31V11.5H205.16C210.66 11.46 215.941 13.65 219.8 17.57C223.925 21.514 226.195 27.015 226.05 32.72C226.21 38.466 223.941 44.013 219.8 48Z" fill="white"/>
</svg>
